PathFileType	4	(X/Y/Z)	/Users/itak/Documents/Research/Walk-IL/dataset/trc/00241_00009.trc
DataRate	CameraRate	NumFrames	NumMarkers	Units	OrigDataRate	OrigDataStartFrame	OrigNumFrames
100.000000	100.000000	4	53	mm	100.000000	437	874
Frame#	Time	RPSI			LPSI			L3			STRN			T10			C7			CLAV			RBAK			LBAK			LSHO			LUPA			LAEL			LAOL			LWTS			LWPS			LFRA			LIFD			LHPS			LHTS			RSHO			RUPA			RAEL			RAOL			RWTS			RWPS			RFRA			RIFD			RHTS			RHPS			RBHD			LFHD			RFHD			LBHD			LHIP			RHIP			RASI			LASI			LKNE			LTHI			LANK			LTIP			LTOE			LMT1			LMT5			LHEE			RKNE			RTHI			RANK			RTIP			RTOE			RMT1			RMT5			RHEE			
		X1	Y1	Z1	X2	Y2	Z2	X3	Y3	Z3	X4	Y4	Z4	X5	Y5	Z5	X6	Y6	Z6	X7	Y7	Z7	X8	Y8	Z8	X9	Y9	Z9	X10	Y10	Z10	X11	Y11	Z11	X12	Y12	Z12	X13	Y13	Z13	X14	Y14	Z14	X15	Y15	Z15	X16	Y16	Z16	X17	Y17	Z17	X18	Y18	Z18	X19	Y19	Z19	X20	Y20	Z20	X21	Y21	Z21	X22	Y22	Z22	X23	Y23	Z23	X24	Y24	Z24	X25	Y25	Z25	X26	Y26	Z26	X27	Y27	Z27	X28	Y28	Z28	X29	Y29	Z29	X30	Y30	Z30	X31	Y31	Z31	X32	Y32	Z32	X33	Y33	Z33	X34	Y34	Z34	X35	Y35	Z35	X36	Y36	Z36	X37	Y37	Z37	X38	Y38	Z38	X39	Y39	Z39	X40	Y40	Z40	X41	Y41	Z41	X42	Y42	Z42	X43	Y43	Z43	X44	Y44	Z44	X45	Y45	Z45	X46	Y46	Z46	X47	Y47	Z47	X48	Y48	Z48	X49	Y49	Z49	X50	Y50	Z50	X51	Y51	Z51	X52	Y52	Z52	X53	Y53	Z53	

438	4.37	-208.1935882568359	1028.557861328125	-428.9346008300781	-240.1538696289062	1033.72412109375	-544.8995361328125	-226.8171691894531	1122.063110351562	-492.4046630859375	21.41615676879883	1291.55908203125	-565.02587890625	-218.4631958007812	1248.09033203125	-476.5581970214844	-141.5170288085938	1504.995971679688	-488.6885681152344	5.956079006195068	1410.426513671875	-550.2778930664062	-197.7909088134766	1366.9853515625	-397.1244201660156	-201.8957214355469	1474.206665039062	-585.1348266601562	-139.8354949951172	1473.039916992188	-670.850341796875	-212.1851806640625	1362.70166015625	-732.369140625	-246.1526489257812	1156.051635742188	-763.8322143554688	-291.4486999511719	1146.62548828125	-689.6806030273438	-175.1838531494141	909.2615966796875	-752.1599731445312	-234.0113067626953	900.947021484375	-812.3887329101562	-248.0751800537109	1048.062377929688	-786.4583129882812	-202.1344604492188	718.4459838867188	-756.6281127929688	-229.5231323242188	810.595703125	-815.1863403320312	-170.0876312255859	803.9441528320312	-783.8256225585938	-31.11778450012207	1450.90771484375	-353.5797424316406	-30.48134803771973	1384.71728515625	-284.8644714355469	-51.21411514282227	1103.3984375	-246.0020599365234	-114.6123428344727	1099.952026367188	-318.3597412109375	81.68345642089844	916.5811767578125	-360.2752380371094	54.73264312744141	885.7608032226562	-285.7732543945312	-17.18416213989258	1035.860229492188	-250.7705230712891	122.543830871582	730.5836791992188	-399.0313415527344	140.3120880126953	804.3286743164062	-375.3704528808594	105.6436538696289	788.4867553710938	-313.8374633789062	-66.38535308837891	1664.621948242188	-468.142578125	126.2347412109375	1665.218383789062	-588.6589965820312	138.2499389648438	1659.376342773438	-489.4916687011719	-38.26911163330078	1667.80419921875	-605.5735473632812	-175.0174102783203	977.7384033203125	-706.0482788085938	-88.16329193115234	984.3641967773438	-349.847412109375	-1.716921448707581	1027.31103515625	-409.4546508789062	-65.70595550537109	1020.900573730469	-681.575439453125	12.93906688690186	522.9445190429688	-749.79833984375	-42.11715698242188	658.5324096679688	-755.1426391601562	-196.48974609375	81.22158813476562	-769.23486328125	-91.80607604980469	319.8999633789062	-767.2542114257812	13.75249099731445	54.12160110473633	-804.8767700195312	-30.41448974609375	47.89681625366211	-739.2552490234375	-91.65253448486328	60.12432098388672	-835.7468872070312	-229.6124420166016	92.95132446289062	-698.5951538085938	-97.53705596923828	497.9016723632812	-456.3274536132812	-44.63904190063477	756.30322265625	-382.4998474121094	-192.9200439453125	32.49409103393555	-546.2553100585938	-104.0321960449219	384.7511291503906	-491.2200012207031	16.85701370239258	41.14959716796875	-602.9288330078125	-43.80907440185547	37.30430603027344	-641.5881958007812	-80.19918060302734	35.17066955566406	-527.915283203125	-257.1316833496094	29.68049430847168	-599.8150024414062	
439	4.38	-204.4435272216797	1028.508666992188	-431.1140441894531	-234.9895629882812	1033.824584960938	-547.501708984375	-222.0974884033203	1122.1875	-494.8420104980469	27.38815689086914	1291.087890625	-564.2123413085938	-213.8070678710938	1248.073852539062	-478.5821838378906	-136.2122344970703	1504.820434570312	-490.0653991699219	11.92847919464111	1409.993896484375	-549.8212890625	-193.5081329345703	1367.008178710938	-398.9967956542969	-195.2899169921875	1474.022583007812	-587.207763671875	-132.3088226318359	1472.667236328125	-672.1452026367188	-203.8713684082031	1362.303955078125	-734.4790649414062	-237.2742462158203	1155.656982421875	-766.4208984375	-283.4002990722656	1146.1416015625	-692.8317260742188	-166.3436126708984	908.8834838867188	-754.1708374023438	-224.4325714111328	900.6307373046875	-815.0835571289062	-238.8761291503906	1047.715698242188	-789.1552734375	-193.2394866943359	718.0479125976562	-759.2233276367188	-219.9662475585938	810.3251342773438	-817.9652709960938	-160.8757019042969	803.6033325195312	-785.8807373046875	-27.27310371398926	1450.828125	-353.6644592285156	-27.40956497192383	1384.682739257812	-284.8706665039062	-48.25906753540039	1103.307006835938	-246.2355194091797	-110.9976196289062	1099.851318359375	-319.03369140625	86.15667724609375	917.3038330078125	-359.9747314453125	58.80374908447266	886.1526489257812	-285.7810974121094	-13.9760913848877	1035.869262695312	-250.8833923339844	128.0704498291016	731.6265869140625	-399.0989685058594	145.3692474365234	805.3717651367188	-375.0116271972656	110.2929611206055	789.1325073242188	-313.8166809082031	-60.93753051757812	1664.394897460938	-468.7618713378906	132.6994781494141	1664.724609375	-587.5928955078125	143.8498382568359	1659.018920898438	-488.31787109375	-31.64020919799805	1667.365844726562	-605.9371948242188	-167.1589813232422	978.0247192382812	-707.872314453125	-85.8524169921875	984.1835327148438	-350.2579040527344	1.707968831062317	1027.068481445312	-408.472900390625	-58.59048461914062	1020.829284667969	-681.3851928710938	23.77907180786133	523.8925170898438	-747.2261962890625	-32.58448791503906	658.8798217773438	-754.1642456054688	-167.9864044189453	74.97245025634766	-775.7606811523438	-72.93839263916016	317.3170776367188	-769.12060546875	44.01758575439453	55.60309219360352	-805.4658203125	-1.76159131526947	47.28596115112305	-741.3713989257812	-60.56954574584961	58.46405410766602	-839.3779296875	-203.7647552490234	84.72160339355469	-706.1038208007812	-95.42110443115234	497.7424926757812	-456.5576171875	-42.19240951538086	755.8110961914062	-382.3533020019531	-192.9009704589844	32.58631134033203	-546.3245849609375	-102.3220520019531	384.5589294433594	-491.3915100097656	16.86786842346191	41.08772277832031	-602.9232788085938	-43.77965545654297	37.23673248291016	-641.639892578125	-80.19172668457031	35.14724731445312	-527.8762817382812	-257.0868225097656	29.81921577453613	-599.8983764648438	
440	4.39	-200.5464019775391	1028.430908203125	-433.1919250488281	-229.7770843505859	1033.886474609375	-549.9629516601562	-217.307373046875	1122.279418945312	-497.1637268066406	33.32677841186523	1290.588500976562	-563.3584594726562	-209.1205291748047	1248.04638671875	-480.5792236328125	-130.8654937744141	1504.62451171875	-491.4458923339844	17.89273071289062	1409.534790039062	-549.3193359375	-189.2185668945312	1367.01611328125	-400.8758544921875	-188.6916961669922	1473.837768554688	-589.2608032226562	-124.7133865356445	1472.30078125	-673.3994140625	-195.4719696044922	1361.915283203125	-736.56884765625	-228.2590942382812	1155.282104492188	-769.0101318359375	-275.22802734375	1145.6494140625	-695.9992065429688	-157.3076477050781	908.5516357421875	-756.246337890625	-214.6587829589844	900.3533935546875	-817.8196411132812	-229.5270843505859	1047.389404296875	-791.8687744140625	-184.1067810058594	717.6748657226562	-761.9189453125	-210.1805114746094	810.0887451171875	-820.8081665039062	-151.3330078125	803.416748046875	-788.0662231445312	-23.45464897155762	1450.736450195312	-353.7315063476562	-24.38153266906738	1384.626953125	-284.8878479003906	-45.40462112426758	1103.216674804688	-246.4856872558594	-107.5021057128906	1099.765258789062	-319.7733459472656	90.47623443603516	917.8734130859375	-359.4872131347656	62.67808532714844	886.4725952148438	-285.5930480957031	-10.89091777801514	1035.864990234375	-250.9504699707031	133.3003692626953	732.43701171875	-398.783447265625	150.1938018798828	806.18701171875	-374.3356323242188	114.681510925293	789.6478881835938	-313.4770812988281	-55.39791488647461	1664.152221679688	-469.3275756835938	139.2429809570312	1664.127319335938	-586.4718627929688	149.5169677734375	1658.553833007812	-487.1041259765625	-24.93269920349121	1666.90771484375	-606.239501953125	-159.3697052001953	978.2942504882812	-709.5870971679688	-83.31284332275391	983.98291015625	-350.681640625	5.242633819580078	1026.836791992188	-407.5537719726562	-51.53900527954102	1020.75439453125	-681.2029418945312	34.37260818481445	524.826416015625	-744.657470703125	-23.30649948120117	659.2186889648438	-753.1583862304688	-138.9768524169922	69.17121887207031	-780.8971557617188	-53.91037750244141	314.9303894042969	-770.375244140625	74.39862060546875	57.20727157592773	-803.75390625	26.88916778564453	47.1495361328125	-741.3494873046875	-29.05082511901855	56.84397506713867	-841.0224609375	-177.4725952148438	77.25665283203125	-712.4761962890625	-93.27760314941406	497.6047668457031	-456.7427368164062	-39.60791015625	755.3633422851562	-382.2898864746094	-192.8794860839844	32.67139434814453	-546.372314453125	-100.5861892700195	384.3827819824219	-491.5164184570312	16.87751197814941	41.02966690063477	-602.9209594726562	-43.75088882446289	37.19313430786133	-641.6661987304688	-80.17779541015625	35.119384765625	-527.8270874023438	-257.051025390625	29.96624374389648	-599.951416015625	
441	4.4	-196.4949493408203	1028.316772460938	-435.1452941894531	-224.5011138916016	1033.889282226562	-552.2554931640625	-212.4379425048828	1122.316650390625	-499.3424987792969	39.2392578125	1290.054931640625	-562.4796142578125	-204.3741302490234	1247.996826171875	-482.5381469726562	-125.4865264892578	1504.396728515625	-492.8311157226562	23.8548412322998	1409.041381835938	-548.7831420898438	-184.9175109863281	1366.997192382812	-402.7538452148438	-182.0996856689453	1473.639038085938	-591.2861328125	-117.0596084594727	1471.928466796875	-674.608154296875	-186.9956665039062	1361.529663085938	-738.6334838867188	-219.1295318603516	1154.922119140625	-771.6006469726562	-266.9751281738281	1145.146484375	-699.190673828125	-148.0791625976562	908.2722778320312	-758.3699340820312	-204.693603515625	900.1100463867188	-820.590087890625	-220.0426330566406	1047.076293945312	-794.5977783203125	-174.732666015625	717.3231811523438	-764.7008056640625	-200.1492462158203	809.8783569335938	-823.7034912109375	-141.4681701660156	803.3734130859375	-790.3534545898438	-19.64273262023926	1450.617553710938	-353.7864379882812	-21.37528800964355	1384.540161132812	-284.918212890625	-42.65597915649414	1103.116821289062	-246.7470703125	-104.134651184082	1099.688598632812	-320.5783081054688	94.64226531982422	918.2828369140625	-358.8081665039062	66.34473419189453	886.7066040039062	-285.2113647460938	-7.935022354125977	1035.835327148438	-250.9668884277344	138.2409362792969	733.0126342773438	-398.0904235839844	154.7816772460938	806.770751953125	-373.3445434570312	118.8071212768555	790.0280151367188	-312.8174133300781	-49.78098297119141	1663.882080078125	-469.8431701660156	145.8572235107422	1663.43505859375	-585.2884521484375	155.2440948486328	1657.987182617188	-485.84619140625	-18.15102386474609	1666.424682617188	-606.4823608398438	-151.6887664794922	978.5125732421875	-711.1728515625	-80.47154235839844	983.7535400390625	-351.1054992675781	8.909303665161133	1026.59423828125	-406.7080688476562	-44.55862045288086	1020.653503417969	-681.043212890625	44.72731781005859	525.7335205078125	-742.123291015625	-14.25528812408447	659.54296875	-752.1242065429688	-109.5906448364258	63.83555221557617	-784.5846557617188	-34.79544448852539	312.7584838867188	-770.9949951171875	104.7318954467773	58.94124984741211	-799.86865234375	55.38652420043945	47.46569061279297	-739.2821044921875	2.74124813079834	55.25468826293945	-840.71142578125	-150.8412170410156	70.56728363037109	-717.6260986328125	-91.09210968017578	497.4772033691406	-456.8742065429688	-36.87198638916016	754.9645385742188	-382.2822875976562	-192.8545074462891	32.7497673034668	-546.4005737304688	-98.82017517089844	384.208984375	-491.6011352539062	16.88734436035156	40.98006057739258	-602.9182739257812	-43.72441101074219	37.17433166503906	-641.6622314453125	-80.15856170654297	35.08630752563477	-527.7677001953125	-257.0279235839844	30.12623405456543	-599.974609375	
